
<svg id="Layer_2" data-name="Layer 2" xmlns="http://www.w3.org/2000/svg" viewBox="0 0 721.2 181.72">
  <defs>
    <style>
      .cls-1 {
        font-family: Cinematografica-Heavy, Cinematografica;
        font-size: 169.79px;
        font-weight: 800;
      }

      .cls-1, .cls-2 {
        fill: #0a66c2;
      }
    </style>
  </defs>
  <g id="Layer_1-2" data-name="Layer 1">
    <g>
      <g>
        <path class="cls-2" d="m59.02,131.32C39.27,119.92,19.74,108.64.05,97.27c0,2.53.05,4.69-.02,6.85-.04,1.06.27,1.71,1.21,2.25,9.72,5.57,19.42,11.18,29.13,16.78,9.19,5.3,18.37,10.62,27.57,15.9.8.46,1.15.98,1.11,1.94-.08,2.12-.02,4.25-.03,6.37,0,.26-.06.53-.11.92C39.25,136.93,19.72,125.65.01,114.27c0,2.73-.04,5.11.04,7.49.02.48.39,1.14.8,1.38,2.96,1.79,5.97,3.51,8.96,5.24,16.12,9.3,32.25,18.6,48.36,27.91.59.34,1.04.4,1.64.06,5.63-3.27,11.27-6.53,16.91-9.79,13.44-7.77,26.87-15.55,40.32-23.3.67-.39.94-.83.94-1.59-.02-6.67-.02-13.34-.02-20,0-12.07,0-24.14,0-36.21,0-.65,0-1.29,0-2.13-.55.28-.92.45-1.26.65-9.06,5.22-18.13,10.45-27.19,15.68-9.83,5.68-19.67,11.35-29.49,17.05-.73.42-1.32.5-2.03-.01-.72-.52-1.52-.94-2.3-1.38-18.25-10.54-36.5-21.07-54.75-31.6-.23-.13-.51-.2-.85-.33,0,.7,0,1.25,0,1.8-.03,1.79-.11,3.58-.05,5.36.02.51.28,1.26.66,1.48,6.42,3.77,12.87,7.48,19.32,11.2,11.93,6.89,23.86,13.77,35.79,20.66,1.06.61,2.49,1.05,3.02,1.99.53.94.17,2.39.18,3.62.01,1.54,0,3.08,0,4.83C39.27,102.9,19.74,91.62.05,80.24c0,1.9-.02,3.46,0,5.02.07,4.05-.69,2.96,2.8,4.96.19.11.39.22.58.33,8.89,5.15,17.78,10.31,26.67,15.45,9.38,5.42,18.77,10.82,28.15,16.24.31.18.73.56.74.85.06,2.67.03,5.34.03,8.22Zm-.03-85.1c.71.38,1.27.65,1.8.96,11.35,6.56,22.7,13.11,34.03,19.68.69.4,1.27.44,1.97.03,1.82-1.08,3.67-2.12,5.53-3.15.87-.48.5-.82-.09-1.16-2.74-1.58-5.49-3.15-8.23-4.73-10.96-6.33-21.89-12.72-32.91-18.95-1.68-.95-2.31-1.92-2.13-3.79.18-1.9.04-3.84.04-5.91.35.17.54.24.73.35,16.63,9.62,33.26,19.24,49.91,28.82.44.25,1.26.26,1.71.03,1.95-1.01,3.83-2.14,5.74-3.24.21-.12.4-.3.66-.5-.31-.22-.53-.41-.77-.56-8.18-4.74-16.37-9.48-24.55-14.21-10.8-6.24-21.6-12.47-32.39-18.73-.69-.4-1.21-.46-1.94-.04-5.1,3-10.24,5.95-15.36,8.91-12.99,7.51-25.99,15.01-38.99,22.52-1.17.68-2.34,1.38-3.61,2.13,19.67,11.36,39.15,22.62,58.87,34.01v-8.41c.42.2.69.31.94.45,1.84,1.06,3.65,2.17,5.52,3.16.44.24,1.19.31,1.61.09,1.98-1.03,3.89-2.18,5.84-3.29.66-.38.7-.66-.01-1.07-3.98-2.26-7.91-4.61-11.94-6.78-1.5-.81-2.16-1.71-2-3.46.18-1.98.04-3.98.04-6.18.88.49,1.56.85,2.23,1.23,6.25,3.62,12.49,7.25,18.76,10.84.46.27,1.24.51,1.62.31,2.17-1.15,4.27-2.43,6.38-3.68.1-.06.15-.22.24-.37-3.83-2.22-7.59-4.4-11.36-6.58-5.71-3.29-11.42-6.58-17.12-9.89-.31-.18-.71-.57-.72-.87-.06-2.6-.03-5.19-.03-7.99Z"/>
        <path class="cls-2" d="m59.02,131.32c0-2.89.02-5.56-.03-8.22,0-.29-.42-.67-.74-.85-9.38-5.43-18.77-10.82-28.15-16.24-8.9-5.14-17.78-10.3-26.67-15.45-.19-.11-.39-.22-.58-.33-3.48-2.01-2.73-.92-2.8-4.96-.03-1.56,0-3.12,0-5.02,19.69,11.38,39.23,22.66,58.98,34.07,0-1.75,0-3.29,0-4.83,0-1.23.36-2.68-.18-3.62-.53-.93-1.96-1.38-3.02-1.99-11.93-6.89-23.86-13.77-35.79-20.66-6.45-3.72-12.9-7.43-19.32-11.2-.39-.23-.65-.97-.66-1.48-.05-1.79.03-3.58.05-5.36,0-.55,0-1.1,0-1.8.34.13.62.19.85.33,18.25,10.53,36.5,21.06,54.75,31.6.77.45,1.57.86,2.3,1.38.71.51,1.3.44,2.03.01,9.82-5.7,19.66-11.37,29.49-17.05,9.06-5.23,18.12-10.45,27.19-15.68.34-.2.71-.37,1.26-.65,0,.84,0,1.49,0,2.13,0,12.07,0,24.14,0,36.21,0,6.67,0,13.34.02,20,0,.76-.27,1.21-.94,1.59-13.45,7.75-26.88,15.53-40.32,23.3-5.64,3.26-11.28,6.51-16.91,9.79-.59.34-1.04.29-1.64-.06-16.11-9.32-32.24-18.61-48.36-27.91-3-1.73-6.01-3.45-8.96-5.24-.41-.25-.79-.9-.8-1.38-.08-2.38-.04-4.76-.04-7.49,19.71,11.38,39.24,22.66,58.91,34.02.05-.39.11-.66.11-.92,0-2.12-.06-4.25.03-6.37.04-.96-.3-1.48-1.11-1.94-9.2-5.28-18.38-10.6-27.57-15.9-9.71-5.6-19.41-11.21-29.13-16.78-.95-.54-1.25-1.2-1.21-2.25.08-2.15.02-4.31.02-6.85,19.69,11.37,39.21,22.64,58.97,34.05Z"/>
        <path class="cls-2" d="m58.99,46.22c0,2.8-.02,5.4.03,7.99,0,.3.41.69.72.87,5.7,3.31,11.41,6.59,17.12,9.89,3.77,2.18,7.54,4.36,11.36,6.58-.1.15-.14.31-.24.37-2.12,1.25-4.21,2.53-6.38,3.68-.39.2-1.16-.04-1.62-.31-6.27-3.59-12.51-7.22-18.76-10.84-.67-.39-1.35-.75-2.23-1.23,0,2.2.14,4.2-.04,6.18-.16,1.75.5,2.65,2,3.46,4.03,2.17,7.96,4.53,11.94,6.78.72.41.68.69.01,1.07-1.94,1.1-3.86,2.26-5.84,3.29-.42.22-1.17.14-1.61-.09-1.87-.99-3.68-2.1-5.52-3.16-.25-.14-.51-.25-.94-.45v8.41C39.28,77.3,19.8,66.05.13,54.68c1.28-.75,2.44-1.45,3.61-2.13,12.99-7.51,25.99-15.01,38.99-22.52,5.13-2.96,10.26-5.91,15.36-8.91.72-.42,1.25-.36,1.94.04,10.79,6.26,21.6,12.49,32.39,18.73,8.19,4.73,16.37,9.47,24.55,14.21.25.14.47.33.77.56-.27.2-.45.38-.66.5-1.9,1.1-3.79,2.23-5.74,3.24-.46.24-1.27.23-1.71-.03-16.65-9.58-33.28-19.2-49.91-28.82-.18-.11-.38-.18-.73-.35,0,2.07.14,4-.04,5.91-.18,1.87.44,2.84,2.13,3.79,11.02,6.23,21.95,12.61,32.91,18.95,2.74,1.58,5.49,3.15,8.23,4.73.59.34.96.67.09,1.16-1.85,1.03-3.7,2.07-5.53,3.15-.7.42-1.28.37-1.97-.03-11.34-6.57-22.69-13.13-34.03-19.68-.53-.31-1.09-.58-1.8-.96Z"/>
      </g>
      <text class="cls-1" transform="translate(150.74 144.32)"><tspan x="0" y="0">Maxfluince</tspan></text>
    </g>
  </g>
</svg>
